# xmcd
#
# Track frame offsets: 
#        182
#        10780
#        18765
#        31120
#        41270
#        50190
#        61457
#        73675
#        85212
#        92387
#        105922
#        121042
#        132552
#        144467
#        154717
#        162212
#        173435
#        181385
#        189072
#        199382
#
# Disc length: 2736 seconds
#
# Revision: 0
# Processed by: cddbd v1.5.1PL2 Copyright (c) Steve Scherf et al.
# Submitted via: ExactAudioCopy v0.95b3
#
DISCID=f40aae14
DTITLE=Jim Reeves - Jim Reeves
DYEAR=1900
DGENRE=Oldies
TTITLE0=Peace In The Valley
TTITLE1=Till The End Of The World
TTITLE2=Your Old Love Letters
TTITLE3=He'll Have To Go
TTITLE4=According To My Heart
TTITLE5=Just Call Me Lonesome
TTITLE6=Four Walls
TTITLE7=If Heartaches Are The Fashion
TTITLE8=I'm Beginning To Forgrt You
TTITLE9=How's The World Treating You
TTITLE10=Making Believe
TTITLE11=I Love You More
TTITLE12=I've Lived A Lot In My Time
TTITLE13=Dear Hearts And Gentle People
TTITLE14=Blue Boy
TTITLE15=Am I Losing You
TTITLE16=Roly Poly
TTITLE17=In A Mansion Stands My Love
TTITLE18=I Missed Me
TTITLE19=Have I Told You Lately That I Love You
EXTD=
EXTT0=
EXTT1=
EXTT2=
EXTT3=
EXTT4=
EXTT5=
EXTT6=
EXTT7=
EXTT8=
EXTT9=
EXTT10=
EXTT11=
EXTT12=
EXTT13=
EXTT14=
EXTT15=
EXTT16=
EXTT17=
EXTT18=
EXTT19=
PLAYORDER=
